# xmcd
#
# Track frame offsets:
# 150
# 39920
# 48682
# 81172
# 114606
# 149560
# 205585
# 237307
#
# Disc length: 3609 seconds
#
# Revision: 0
# Processed by: cddbd v1.5.1PL0 Copyright (c) Steve Scherf et al.
# Submitted via: Audion 3.0.2 (http://www.panic.com/audion/)
#
DISCID=6d0e1708
DTITLE=DAVE SEAMAN - GLOBAL UNDERGRUND
DYEAR=1900
DGENRE=
TTITLE0=One Of The People
TTITLE1=Life <N Minds
TTITLE2=KMLZ<EAM<EA
TTITLE3=KMEA<ML<EA
TTITLE4=MLZE<AMLE<
TTITLE5=MLAE<M
TTITLE6=MLSÜAEÜ
TTITLE7=MLZAEÜML
EXTD=
EXTT0=
EXTT1=
EXTT2=
EXTT3=
EXTT4=
EXTT5=
EXTT6=
EXTT7=
PLAYORDER=
